<svg height="30" viewBox="0 0 30 30" width="30" xmlns="http://www.w3.org/2000/svg"><path d="M22 15c-1 0-3 2-7 2s-6-2-7-2c-1.104 0-2 .896-2 2 0 1 .568 1.48 1 1.734C8.185 19.427 12 21 12 21l-4.25 5.438S7 27.373 7 28c0 1.104.896 2 2 2 1.02 0 1.484-.656 1.484-.656S14.994 23.994 15 24c.007-.007 4.516 5.344 4.516 5.344S19.98 30 21 30c1.104 0 2-.896 2-2 0-.627-.75-1.562-.75-1.562L18 21s3.815-1.573 5-2.266c.432-.253 1-.734 1-1.734 0-1.104-.896-2-2-2zM15 0c-3.866 0-7 3.134-7 7s3.134 7 7 7c3.865 0 7-3.134 7-7s-3.135-7-7-7zm0 10.5c-1.933 0-3.5-1.566-3.5-3.5 0-1.933 1.567-3.5 3.5-3.5 1.932 0 3.5 1.567 3.5 3.5 0 1.934-1.568 3.5-3.5 3.5z"/></svg>