<svg xmlns="http://www.w3.org/2000/svg" viewBox="0 0 20 20"><path d="M15 13.442c-.633 0-1.204.246-1.637.642L7.425 10.62c.046-.187.075-.383.075-.583s-.03-.395-.075-.583l5.875-3.43c.446.418 1.042.676 1.7.676 1.38 0 2.5-1.12 2.5-2.5S16.38 1.7 15 1.7s-2.5 1.12-2.5 2.5c0 .2.03.396.075.583L6.7 8.213c-.446-.417-1.042-.676-1.7-.676-1.38 0-2.5 1.12-2.5 2.5s1.12 2.5 2.5 2.5c.658 0 1.254-.258 1.7-.675l5.938 3.463c-.042.175-.067.358-.067.546 0 1.343 1.088 2.43 2.43 2.43s2.43-1.088 2.43-2.43-1.088-2.428-2.43-2.428z"/></svg>