<svg xmlns="http://www.w3.org/2000/svg" viewBox="0 0 20 20"><path d="M19 17V3c0-1.1-.903-2-2.005-2H3.005C1.855 1 1 1.853 1 3v14c0 1.148.855 2 2.005 2h13.99C18.097 19 19 18.1 19 17zm-3.816-5.393s1.132 1.117 1.41 1.635c.01.01.012.02.015.025.112.19.14.34.084.45-.094.183-.414.275-.523.283h-1.998c-.14 0-.43-.036-.782-.28-.27-.187-.537-.498-.797-.8-.388-.45-.724-.84-1.062-.84-.042 0-.085.006-.125.02-.257.082-.583.447-.583 1.422 0 .305-.24.48-.41.48h-.916c-.312 0-1.937-.11-3.376-1.63-1.766-1.86-3.352-5.59-3.366-5.623-.1-.242.107-.373.332-.373h2.02c.27 0 .358.164.42.31.07.168.334.842.766 1.6.703 1.233 1.136 1.735 1.48 1.735.065 0 .127-.017.185-.05.45-.248.367-1.856.347-2.188 0-.063 0-.72-.23-1.034-.167-.228-.448-.315-.618-.348.045-.065.142-.166.266-.226.31-.154.866-.176 1.42-.176h.308c.6.008.757.047.974.102.44.105.448.39.41 1.36-.012.276-.024.59-.024.956 0 .08-.003.166-.003.256-.014.496-.03 1.057.32 1.287.046.03.097.045.15.045.123 0 .488 0 1.477-1.697.435-.75.77-1.633.793-1.7.02-.035.08-.14.148-.182.056-.033.128-.04.166-.04h2.376c.26 0 .436.04.47.14.056.158-.012.643-1.097 2.11-.185.242-.344.454-.484.64-.984 1.287-.984 1.353.058 2.33z"/></svg>